<svg width="40" height="160" viewBox="0 0 40 160" fill="none" xmlns="http://www.w3.org/2000/svg">
<path d="M39.8864 14.9637C39.8864 14.9637 39.9275 92.3707 39.7427 101.196C39.558 110.021 29.9294 116.432 28.4513 118.117C26.9731 119.803 27.0963 121.302 27.0963 121.302C27.0963 121.302 26.4188 149.775 26.4804 150.587C26.542 151.399 26.9116 151.461 26.9116 151.461L26.8705 155.249C26.8705 156.561 26.2135 156.373 26.3162 156.665C26.5009 159.579 25.6592 159.287 24.2837 159.766C23.6473 159.974 21.7996 159.974 19.9724 159.912C18.1453 159.974 16.2976 159.974 15.6612 159.766C14.2651 159.287 13.4439 159.579 13.6287 156.665C13.7108 156.373 13.0744 156.561 13.0744 155.249L13.0333 151.461C13.0333 151.461 13.4029 151.399 13.4645 150.587C13.526 149.775 12.8486 121.302 12.8486 121.302C12.8486 121.302 12.9717 119.803 11.4936 118.117C10.0154 116.432 0.366376 110.021 0.181607 101.196C-0.00316215 92.3707 0.0789575 14.9637 0.0789575 14.9637C0.0789575 14.9637 -0.0442226 7.20012 0.0173671 6.32594C0.0789569 5.38931 1.06439 2.62106 1.98824 1.74687C2.80943 0.955948 5.0472 -0.126373 19.9724 0.0193176C34.8977 -0.126373 37.1354 0.955948 37.9566 1.74687C38.8805 2.62106 39.8659 5.38931 39.9275 6.32594C40.0096 7.20012 39.8864 14.9637 39.8864 14.9637Z" fill="#1F4700"/>
<path d="M27.0142 125.193C26.9731 127.108 26.9115 129.564 26.8499 132.186C26.8294 132.686 13.1359 132.831 13.1154 132.311C13.0538 129.605 12.9922 127.087 12.9512 125.151C12.9512 124.86 27.0142 124.88 27.0142 125.193Z" fill="#408663"/>
<path d="M26.5831 125.193C26.542 127.108 26.4804 129.564 26.4393 132.186C26.4393 132.686 13.5671 132.831 13.5671 132.311C13.5055 129.605 13.4439 127.087 13.4029 125.151C13.3823 124.86 26.5831 124.88 26.5831 125.193Z" fill="url(#paint0_linear_4015_3657)"/>
<path d="M19.8287 131.645C23.2778 131.625 26.85 131.396 26.85 131.396C26.85 131.396 26.4599 150.107 26.4804 150.607C26.542 151.419 26.9115 151.481 26.9115 151.481L26.8705 155.269C26.8705 156.58 26.2135 156.393 26.3162 156.684C26.5009 159.598 25.6592 159.307 24.2837 159.786C23.6473 159.994 21.7996 159.994 19.9724 159.931C18.1453 159.994 16.2976 159.994 15.6612 159.786C14.2651 159.307 13.4439 159.598 13.6287 156.684C13.7108 156.393 13.0744 156.58 13.0744 155.269L13.0333 151.481C13.0333 151.481 13.4029 151.419 13.4645 150.607C13.5055 150.128 13.2797 139.742 13.0744 131.479C13.0949 131.479 16.2976 131.666 19.8287 131.645Z" fill="url(#paint1_linear_4015_3657)"/>
<path d="M19.8287 132.644C23.2778 132.623 26.85 132.394 26.85 132.394C26.85 132.394 26.85 132.498 26.85 132.707C26.85 132.935 13.1155 133.123 13.1155 132.831C13.1155 132.707 13.1155 132.582 13.1155 132.478C13.0949 132.498 16.2976 132.686 19.8287 132.644Z" fill="url(#paint2_linear_4015_3657)"/>
<path d="M19.8492 134.247C23.2572 134.226 26.8088 133.997 26.8088 133.997C26.8088 133.997 26.8088 134.101 26.8088 134.309C26.8088 134.538 13.1975 134.725 13.177 134.434C13.177 134.309 13.177 134.184 13.177 134.08C13.1564 134.101 16.3386 134.288 19.8492 134.247Z" fill="url(#paint3_linear_4015_3657)"/>
<path d="M19.993 159.724C22.4976 159.724 25.0023 159.536 24.3042 159.786C23.6678 159.994 21.7996 160.036 19.9724 159.973C18.1453 160.036 16.2976 159.994 15.6817 159.786C14.9837 159.536 17.4883 159.724 19.993 159.724Z" fill="url(#paint4_linear_4015_3657)"/>
<path d="M26.542 150.94C26.6652 151.44 26.9321 151.482 26.9321 151.482L26.891 155.27C26.891 155.603 26.85 155.852 26.7884 156.019C26.6652 156.352 26.4804 156.435 26.3778 156.519C26.3367 156.56 13.6287 156.56 13.5876 156.519C13.485 156.414 13.2386 156.31 13.136 155.852C13.0949 155.707 13.0744 155.499 13.0744 155.27L13.0333 151.482C13.0333 151.482 13.3002 151.336 13.4234 150.94C13.485 150.836 26.5215 150.857 26.542 150.94Z" fill="url(#paint5_linear_4015_3657)"/>
<path d="M26.542 150.939C26.6652 151.439 26.932 151.48 26.932 151.48H13.0538C13.0538 151.48 13.3207 151.335 13.4439 150.939C13.485 150.835 26.5215 150.856 26.542 150.939Z" fill="url(#paint6_linear_4015_3657)"/>
<path d="M26.9116 151.481L26.8705 155.27C26.8705 155.603 26.8294 155.852 26.7679 156.019C26.7063 156.185 13.2386 156.206 13.1771 156.06C13.1565 155.998 13.136 155.936 13.1155 155.852C13.0744 155.707 13.0539 155.498 13.0539 155.27L13.0128 151.481H26.9116Z" fill="url(#paint7_linear_4015_3657)"/>
<path d="M39.8864 14.9629C39.8864 14.9629 39.9275 92.3698 39.7427 101.195C39.558 110.02 29.9294 116.431 28.4513 118.117C26.9731 119.803 27.0963 121.301 27.0963 121.301C27.0963 121.301 26.9937 125.131 26.9526 126.255C26.9321 127.004 12.9923 127.358 12.9717 126.567C12.9512 125.526 12.8486 121.301 12.8486 121.301C12.8486 121.301 12.9717 119.803 11.4936 118.117C10.0154 116.431 0.366376 110.02 0.181607 101.195C-0.00316215 92.3698 0.0789575 14.9629 0.0789575 14.9629C0.0789575 14.9629 -0.0442226 7.19932 0.0173671 6.32513C0.0789569 5.3885 1.06439 2.62025 1.98824 1.74607C2.80943 0.955139 5.0472 -0.127182 19.9724 0.0185165C34.8977 -0.127182 37.1354 0.955139 37.9566 1.74607C38.8805 2.62025 39.8659 5.3885 39.9275 6.32513C40.0096 7.19932 39.8864 14.9629 39.8864 14.9629Z" fill="url(#paint8_linear_4015_3657)"/>
<path d="M39.8865 14.9631C39.8865 14.9631 40.1124 91.9537 39.9276 100.779C39.7428 109.604 30.3196 115.827 28.5745 117.222C27.6712 117.95 27.0553 118.866 26.809 120.115C26.2957 122.675 26.6653 125.527 26.5421 126.422C26.4394 127.171 13.444 127.504 13.4235 126.713C13.4029 125.672 13.3208 121.26 13.3208 121.26C13.3208 121.26 13.3414 119.262 11.8632 117.555C10.3851 115.869 0.961828 109.958 0.777058 101.133C0.592289 92.3076 0.694939 14.8382 0.694939 14.8382C0.694939 14.8382 0.674408 7.15788 0.735998 6.28369C0.797587 5.34706 1.26977 2.49557 2.19362 1.62138C3.01482 0.830452 5.04728 -0.147804 19.9725 0.0187073C34.8978 -0.126991 37.1355 0.95533 37.9567 1.74626C38.8806 2.62045 39.8455 5.22218 39.9071 6.17962C39.9892 7.0538 39.8865 14.9631 39.8865 14.9631Z" fill="url(#paint9_linear_4015_3657)"/>
<path d="M15.2506 115.973C15.2506 115.973 4.71875 108.75 4.71875 101.028C4.71875 93.3062 4.96511 4.61817 5.06776 4.61817C5.19094 4.61817 8.78367 2.53679 13.6698 3.97295C13.793 6.99097 13.3824 100.674 13.3824 100.674C13.3824 100.674 12.787 109.229 18.0221 114.058L15.2506 115.973Z" fill="url(#paint10_linear_4015_3657)"/>
<path d="M33.5016 108.626C33.5016 108.626 37.2997 106.94 37.4228 97.6569C37.546 88.3739 37.7719 8.71902 37.7719 8.71902C37.7719 8.71902 31.1202 6.34623 30.2784 7.67832C29.4367 9.01041 31.2228 104.9 28.8619 106.336C30.648 107.543 33.5016 108.626 33.5016 108.626Z" fill="url(#paint11_linear_4015_3657)"/>
<defs>
<linearGradient id="paint0_linear_4015_3657" x1="13.3896" y1="128.79" x2="26.5774" y2="128.79" gradientUnits="userSpaceOnUse">
<stop offset="0.0604396" stop-color="#005128"/>
<stop offset="0.123" stop-color="#1A6740"/>
<stop offset="0.2014" stop-color="#367E5A"/>
<stop offset="0.2473" stop-color="#408663"/>
<stop offset="0.2836" stop-color="#337855"/>
<stop offset="0.3521" stop-color="#105332"/>
<stop offset="0.3791" stop-color="#004322"/>
<stop offset="0.4286" stop-color="#00361B"/>
<stop offset="0.5" stop-color="#002814"/>
<stop offset="0.7363" stop-color="#005E2F"/>
<stop offset="0.8736" stop-color="#408663"/>
<stop offset="0.9725" stop-color="#002814"/>
</linearGradient>
<linearGradient id="paint1_linear_4015_3657" x1="13.047" y1="145.684" x2="26.9217" y2="145.684" gradientUnits="userSpaceOnUse">
<stop offset="0.0604396" stop-color="#510410"/>
<stop offset="0.096922" stop-color="#6C0515"/>
<stop offset="0.1644" stop-color="#98071E"/>
<stop offset="0.2167" stop-color="#B40924"/>
<stop offset="0.2473" stop-color="#BE0926"/>
<stop offset="0.2772" stop-color="#B00B25"/>
<stop offset="0.3335" stop-color="#8B0F22"/>
<stop offset="0.3516" stop-color="#7E1021"/>
<stop offset="0.4286" stop-color="#610E1C"/>
<stop offset="0.489" stop-color="#510C17"/>
<stop offset="0.7363" stop-color="#510C17"/>
<stop offset="0.8736" stop-color="#6D0516"/>
<stop offset="0.9725"/>
</linearGradient>
<linearGradient id="paint2_linear_4015_3657" x1="13.0999" y1="132.706" x2="26.8511" y2="132.706" gradientUnits="userSpaceOnUse">
<stop offset="0.0604396" stop-color="#F8B334"/>
<stop offset="0.0682008" stop-color="#F8B63C"/>
<stop offset="0.1303" stop-color="#FACD7A"/>
<stop offset="0.1829" stop-color="#FCDEA6"/>
<stop offset="0.2236" stop-color="#FDE8C2"/>
<stop offset="0.2473" stop-color="#FDECCC"/>
<stop offset="0.2619" stop-color="#FDE7BE"/>
<stop offset="0.2897" stop-color="#FBD999"/>
<stop offset="0.3274" stop-color="#F9C35E"/>
<stop offset="0.3516" stop-color="#F8B334"/>
<stop offset="0.4286" stop-color="#F9BD4D"/>
<stop offset="0.489" stop-color="#B18025"/>
<stop offset="0.7363" stop-color="#D5992D"/>
<stop offset="0.8736" stop-color="#FCE3B3"/>
<stop offset="0.9725" stop-color="#B18025"/>
</linearGradient>
<linearGradient id="paint3_linear_4015_3657" x1="13.1594" y1="134.313" x2="26.7991" y2="134.313" gradientUnits="userSpaceOnUse">
<stop offset="0.0604396" stop-color="#F8B334"/>
<stop offset="0.0682008" stop-color="#F8B63C"/>
<stop offset="0.1303" stop-color="#FACD7A"/>
<stop offset="0.1829" stop-color="#FCDEA6"/>
<stop offset="0.2236" stop-color="#FDE8C2"/>
<stop offset="0.2473" stop-color="#FDECCC"/>
<stop offset="0.2619" stop-color="#FDE7BE"/>
<stop offset="0.2897" stop-color="#FBD999"/>
<stop offset="0.3274" stop-color="#F9C35E"/>
<stop offset="0.3516" stop-color="#F8B334"/>
<stop offset="0.4286" stop-color="#F9BD4D"/>
<stop offset="0.489" stop-color="#B18025"/>
<stop offset="0.7363" stop-color="#D5992D"/>
<stop offset="0.8736" stop-color="#FCE3B3"/>
<stop offset="0.9725" stop-color="#B18025"/>
</linearGradient>
<linearGradient id="paint4_linear_4015_3657" x1="15.5538" y1="159.827" x2="24.4148" y2="159.827" gradientUnits="userSpaceOnUse">
<stop stop-color="#FFAB00"/>
<stop offset="0.4945" stop-color="#F8E834"/>
<stop offset="1" stop-color="#FFAB00"/>
</linearGradient>
<linearGradient id="paint5_linear_4015_3657" x1="13.047" y1="153.713" x2="26.9217" y2="153.713" gradientUnits="userSpaceOnUse">
<stop stop-color="#700E1C"/>
<stop offset="1" stop-color="#420C17"/>
</linearGradient>
<linearGradient id="paint6_linear_4015_3657" x1="13.0469" y1="151.175" x2="26.9217" y2="151.175" gradientUnits="userSpaceOnUse">
<stop stop-color="#610E1C"/>
<stop offset="1" stop-color="#260C17"/>
</linearGradient>
<linearGradient id="paint7_linear_4015_3657" x1="13.047" y1="153.825" x2="26.9217" y2="153.825" gradientUnits="userSpaceOnUse">
<stop offset="0.021978" stop-color="#510410"/>
<stop offset="0.0659714" stop-color="#6C0515"/>
<stop offset="0.1473" stop-color="#98071E"/>
<stop offset="0.2104" stop-color="#B40924"/>
<stop offset="0.2473" stop-color="#BE0926"/>
<stop offset="0.2772" stop-color="#B00B25"/>
<stop offset="0.3335" stop-color="#8B0F22"/>
<stop offset="0.3516" stop-color="#7E1021"/>
<stop offset="0.4286" stop-color="#610E1C"/>
<stop offset="0.489" stop-color="#510C17"/>
<stop offset="0.7363" stop-color="#510C17"/>
<stop offset="0.8736" stop-color="#6D0516"/>
<stop offset="1"/>
</linearGradient>
<linearGradient id="paint8_linear_4015_3657" x1="0.00340686" y1="63.5241" x2="39.9656" y2="63.5241" gradientUnits="userSpaceOnUse">
<stop stop-color="#EDE1E3"/>
<stop offset="1" stop-color="#B38585"/>
</linearGradient>
<linearGradient id="paint9_linear_4015_3657" x1="20.3352" y1="127.671" x2="20.3352" y2="-1.37566" gradientUnits="userSpaceOnUse">
<stop stop-color="#2E0000"/>
<stop offset="0.5256" stop-color="#2C0000"/>
<stop offset="0.715" stop-color="#250000"/>
<stop offset="0.8499" stop-color="#1A0000"/>
<stop offset="0.9583" stop-color="#090000"/>
<stop offset="1"/>
</linearGradient>
<linearGradient id="paint10_linear_4015_3657" x1="4.6997" y1="59.721" x2="18.0137" y2="59.721" gradientUnits="userSpaceOnUse">
<stop stop-color="#C6BFBF"/>
<stop offset="1" stop-color="#B38585"/>
</linearGradient>
<linearGradient id="paint11_linear_4015_3657" x1="28.873" y1="57.9476" x2="37.7877" y2="57.9476" gradientUnits="userSpaceOnUse">
<stop stop-color="#724C4C"/>
<stop offset="0.9066" stop-color="#534040"/>
</linearGradient>
</defs>
</svg>
