<svg width="40" height="160" viewBox="0 0 40 160" fill="none" xmlns="http://www.w3.org/2000/svg">
<path d="M0.0693538 15.1867C0.0693538 15.1867 0.028261 92.4853 0.213233 101.298C0.398208 110.111 10.0374 116.513 11.5172 118.196C12.997 119.88 12.8737 121.376 12.8737 121.376C12.8737 121.376 13.5519 149.81 13.4903 150.62C13.4286 151.431 13.0587 151.493 13.0587 151.493L13.0998 155.276C13.0998 156.586 13.7575 156.399 13.6547 156.69C13.4697 159.599 14.3124 159.308 15.6894 159.786C16.3266 159.994 18.1763 159.994 20.0055 159.932C21.8347 159.994 23.6844 159.994 24.3216 159.786C25.7192 159.308 26.5413 159.599 26.3563 156.69C26.2741 156.399 26.9112 156.586 26.9112 155.276L26.9523 151.493C26.9523 151.493 26.5824 151.431 26.5207 150.62C26.4591 149.81 27.1373 121.376 27.1373 121.376C27.1373 121.376 27.014 119.88 28.4938 118.196C29.9736 116.513 39.6333 110.111 39.8183 101.298C40.0033 92.4853 39.9211 15.1867 39.9211 15.1867C39.9211 15.1867 40.0444 7.43398 39.9827 6.56102C39.9211 5.6257 38.9345 2.86133 38.0097 1.98837C37.167 1.19855 34.9473 0.117737 20.0055 0.263231C5.06366 0.11774 2.82342 1.19855 2.00131 1.98838C1.07644 2.86133 0.0899066 5.62571 0.0282459 6.56102C-0.0539646 7.43398 0.0693538 15.1867 0.0693538 15.1867Z" fill="#FDFCF5"/>
<path d="M11.5173 118.196C12.997 119.88 12.8737 121.376 12.8737 121.376C12.8737 121.376 12.9971 126.489 13.1409 132.454C13.3259 140.54 13.5314 150.163 13.4903 150.62C13.4287 151.431 13.0587 151.493 13.0587 151.493L13.0998 155.276C13.0998 156.586 13.7575 156.399 13.6547 156.69C13.4698 159.599 14.3124 159.308 15.6895 159.786C16.3266 159.994 18.1763 159.994 20.0055 159.932C21.8347 159.994 23.6845 159.994 24.3216 159.786C25.7192 159.308 26.5413 159.599 26.3563 156.69C26.2741 156.399 26.9112 156.586 26.9112 155.276L26.9523 151.493C26.9523 151.493 26.5824 151.431 26.5207 150.62C26.4796 150.163 26.6852 140.581 26.8701 132.517C27.014 126.531 27.1373 121.355 27.1373 121.355C27.1373 121.355 27.014 119.859 28.4938 118.175C29.9736 116.492 10.0169 116.492 11.5173 118.196Z" fill="url(#paint0_linear_2004_1515)"/>
<path d="M0.0693573 15.1865C0.0693573 15.1865 0.0282645 92.4851 0.213236 101.298C0.398212 110.111 10.0374 116.512 11.5172 118.196C12.401 119.194 17.6008 119.588 22.0608 119.422C24.1366 119.339 26.048 119.131 27.2606 118.799C27.8566 118.632 28.2882 118.425 28.4938 118.196C29.9736 116.512 39.6333 110.111 39.8183 101.298C40.0033 92.4851 39.9211 15.1865 39.9211 15.1865C39.9211 15.1865 40.0444 7.43376 39.9827 6.56081C39.9211 5.62549 38.9345 2.86111 38.0097 1.98815C37.167 1.19833 34.9473 0.117524 20.0055 0.263017C5.06367 0.117526 2.82343 1.19834 2.00132 1.98815C1.07644 2.86112 0.0899101 5.62549 0.0282494 6.56081C-0.0539611 7.43377 0.0693573 15.1865 0.0693573 15.1865Z" fill="#FDFCF5"/>
<path d="M0.788699 14.9374C0.788699 14.9374 0.74761 92.236 0.912031 101.049C1.09701 109.862 10.3457 116.263 11.7844 117.947C13.2025 119.63 26.6851 119.63 28.1033 117.947C29.5214 116.263 38.8112 109.862 38.9962 101.049C39.1812 92.236 39.099 14.9374 39.099 14.9374C39.099 14.9374 39.2839 5.70898 39.2223 4.83601C39.1606 3.9007 38.9962 2.59125 38.0919 1.6975C37.2903 0.907684 34.2896 -0.131553 19.9233 0.0139406C5.55693 -0.131551 2.78231 1.19868 1.98075 1.9885C1.09699 2.86146 0.665391 4.79444 0.603731 5.72976C0.562627 6.60272 0.788699 14.9374 0.788699 14.9374Z" fill="url(#paint1_linear_2004_1515)"/>
<path d="M20.1494 131.685C16.6966 131.665 13.1204 131.436 13.1204 131.436C13.1204 131.436 13.5109 150.122 13.4904 150.62C13.4287 151.431 13.0588 151.493 13.0588 151.493L13.0999 155.276C13.0999 156.586 13.7576 156.399 13.6548 156.69C13.4698 159.599 14.3125 159.308 15.6895 159.786C16.3266 159.994 18.1764 159.994 20.0056 159.932C21.8348 159.994 23.6845 159.994 24.3216 159.786C25.7192 159.308 26.5413 159.599 26.3564 156.69C26.2742 156.399 26.9113 156.586 26.9113 155.276L26.9524 151.493C26.9524 151.493 26.5824 151.431 26.5208 150.62C26.4797 150.142 26.7058 139.771 26.8907 131.519C26.8907 131.54 23.6845 131.727 20.1494 131.685Z" fill="url(#paint2_linear_2004_1515)"/>
<path d="M20.1493 132.704C16.6964 132.683 13.1202 132.454 13.1202 132.454C13.1202 132.454 13.1202 132.558 13.1202 132.766C13.1202 132.995 26.87 133.182 26.87 132.891C26.87 132.766 26.87 132.641 26.87 132.537C26.8906 132.537 23.6843 132.724 20.1493 132.704Z" fill="url(#paint3_linear_2004_1515)"/>
<path d="M20.1495 134.304C16.7377 134.283 13.1821 134.055 13.1821 134.055C13.1821 134.055 13.1821 134.159 13.1821 134.367C13.1821 134.595 26.8085 134.782 26.8291 134.491C26.8291 134.367 26.8291 134.242 26.8291 134.138C26.8291 134.138 23.6434 134.325 20.1495 134.304Z" fill="url(#paint4_linear_2004_1515)"/>
<path d="M20.0056 159.724C17.4982 159.724 14.9907 159.537 15.6895 159.786C16.3267 159.994 18.197 160.036 20.0262 159.973C21.8554 160.036 23.7051 159.994 24.3217 159.786C25.0205 159.558 22.513 159.724 20.0056 159.724Z" fill="url(#paint5_linear_2004_1515)"/>
<path d="M13.4287 150.974C13.3054 151.473 13.0382 151.514 13.0382 151.514L13.0793 155.297C13.0793 155.629 13.1204 155.879 13.1821 156.045C13.3054 156.378 13.4904 156.461 13.5931 156.544C13.6342 156.586 26.3564 156.586 26.3975 156.544C26.5002 156.44 26.7469 156.336 26.8496 155.879C26.8907 155.733 26.9113 155.526 26.9113 155.297L26.9524 151.514C26.9524 151.514 26.6852 151.369 26.5619 150.974C26.5208 150.849 13.4698 150.87 13.4287 150.974Z" fill="url(#paint6_linear_2004_1515)"/>
<path d="M13.4285 150.974C13.3052 151.473 13.038 151.514 13.038 151.514L26.9316 151.514C26.9316 151.514 26.6645 151.369 26.5411 150.974C26.5206 150.849 13.4696 150.87 13.4285 150.974Z" fill="url(#paint7_linear_2004_1515)"/>
<path d="M13.0587 151.514L13.0998 155.297C13.0998 155.63 13.1409 155.879 13.2026 156.045C13.2642 156.211 26.7468 156.232 26.8085 156.087C26.829 156.024 26.8496 155.962 26.8701 155.879C26.9112 155.733 26.9318 155.526 26.9318 155.297L26.9729 151.514L13.0587 151.514Z" fill="url(#paint8_linear_2004_1515)"/>
<path d="M2.20684 15.9557C2.20684 15.9557 2.00132 92.2774 2.16574 101.028C2.33016 109.778 10.7979 115.951 12.3599 117.344C12.7915 117.718 13.1203 118.154 13.4081 118.653C14.0658 119.755 26.0274 120.025 26.7468 118.633C26.9112 118.321 27.1167 117.988 27.3634 117.676C28.6993 115.993 37.167 110.132 37.3314 101.381C37.4958 92.6308 37.3931 15.8518 37.3931 15.8518C37.3931 15.8518 37.4136 8.24455 37.352 7.37159C37.2903 6.43628 36.8587 3.63034 36.0366 2.75738C35.2967 1.96756 33.4675 1.01146 20.0671 1.15695C6.66677 1.01146 4.65261 2.09227 3.91271 2.86131C3.0906 3.73427 2.20683 6.31158 2.16573 7.24689C2.10407 8.11985 2.20684 15.9557 2.20684 15.9557Z" fill="#F0E9AE"/>
<path d="M37.8042 100.945C36.7765 110.09 27.7333 117.406 20.5604 117.49C12.4216 117.593 3.31671 109.009 2.06299 101.236C1.98078 100.758 1.01481 102.441 1.01481 102.504C2.08355 110.568 10.1197 116.492 11.4556 118.092C12.5038 119.339 12.7299 120.316 12.8326 120.815C12.8737 120.981 12.8943 122.166 12.8943 122.166C12.8943 122.166 19.6767 119.048 27.0756 122.27C27.0756 121.813 27.3428 120.857 27.3634 120.711C27.4456 120.358 27.61 119.755 28.1238 118.944C28.3294 118.633 28.4732 118.466 28.7815 118.092C30.138 116.471 37.9891 110.423 38.8935 102.213C38.914 102.109 38.0097 99.0326 37.8042 100.945Z" fill="url(#paint9_linear_2004_1515)"/>
<path d="M19.6355 13.6069C25.4108 13.7523 30.5079 9.34597 36.4065 3.31838C35.5638 1.9258 34.8034 0.990494 19.8616 1.1152C4.91974 0.990497 4.01543 2.13366 3.27553 3.81723C9.60577 10.0942 14.6617 13.4614 19.6355 13.6069Z" fill="url(#paint10_radial_2004_1515)"/>
<path d="M19.6355 11.5495C25.4108 11.6742 30.4874 8.22389 36.386 3.19398C35.5433 2.03003 34.8034 1.01157 19.8616 1.1155C11.065 1.05314 7.13947 1.44806 5.26917 2.09239C3.9538 2.52887 3.64552 3.09005 3.33723 3.67203C9.66746 8.90979 14.6618 11.4455 19.6355 11.5495Z" fill="url(#paint11_radial_2004_1515)"/>
<path d="M19.6355 11.5494C24.8148 11.6533 29.4597 8.88895 34.639 4.66964C35.2144 4.19159 35.8105 3.69276 36.4065 3.19393C35.7899 2.34175 35.235 1.57272 29.0281 1.26095C26.7878 1.13624 33.3647 5.75046 19.6355 11.5494Z" fill="url(#paint12_radial_2004_1515)"/>
<path d="M24.7531 116.055C24.7531 116.055 35.2966 108.843 35.2966 101.132C35.2966 93.4206 35.05 4.85659 34.9472 4.85659C34.8239 4.85659 31.2272 2.77812 26.3356 4.21227C26.2123 7.22607 26.6234 100.778 26.6234 100.778C26.6234 100.778 27.2194 109.321 21.9785 114.143L24.7531 116.055Z" fill="url(#paint13_linear_2004_1515)"/>
<path d="M28.6992 3.69253C28.617 4.77334 28.1237 6.14513 26.3151 7.70399L26.3357 10.0942C29.0486 8.88872 31.7616 6.9973 34.6184 4.64862C33.1181 4.08743 31.8027 3.54703 28.6992 3.69253Z" fill="#EAE8CB"/>
<path d="M26.3151 10.1358L26.3357 11.7778C29.1514 10.219 31.9671 7.76637 34.9473 4.81493L34.6595 4.71101C32.7276 6.18673 30.6106 7.70402 26.3151 10.1358Z" fill="#C6C173"/>
<path d="M6.46129 108.697C6.46129 108.697 2.65903 107.055 2.53572 98.0139C2.4124 88.9725 2.18631 11.4453 2.18631 11.4453C2.18631 11.4453 8.84539 9.13815 9.68805 10.4268C10.5307 11.7155 8.74264 105.039 11.1062 106.453C9.31812 107.658 6.46129 108.697 6.46129 108.697Z" fill="url(#paint14_linear_2004_1515)"/>
<g style="mix-blend-mode:hue">
<path d="M39.9306 14.9631C39.9306 14.9631 39.9717 92.398 39.7868 101.226C39.6018 110.055 29.9626 116.468 28.4828 118.154C27.003 119.841 27.1263 121.34 27.1263 121.34C27.1263 121.34 26.4481 149.824 26.5097 150.636C26.5714 151.448 26.9413 151.51 26.9413 151.51L26.9002 155.3C26.9002 156.611 26.2425 156.424 26.3453 156.715C26.5303 159.63 25.6876 159.339 24.3106 159.818C23.6734 160.026 21.8237 160.026 19.9945 159.964C18.1653 160.026 16.3156 160.026 15.6784 159.818C14.2808 159.339 13.4587 159.63 13.6437 156.715C13.7259 156.424 13.0888 156.611 13.0888 155.3L13.0477 151.51C13.0477 151.51 13.4176 151.448 13.4793 150.636C13.541 149.824 12.8627 121.34 12.8627 121.34C12.8627 121.34 12.986 119.841 11.5062 118.154C10.0264 116.468 0.366661 110.055 0.181687 101.226C-0.00328786 92.398 0.078923 14.9631 0.078923 14.9631C0.078923 14.9631 -0.0443939 7.1967 0.0172642 6.3222C0.0789224 5.38524 1.06545 2.61598 1.99032 1.74149C2.81243 0.950272 5.05268 -0.132446 19.9945 0.0133057C34.9363 -0.132446 37.1766 0.950272 37.9987 1.74149C38.9235 2.61598 39.9101 5.38524 39.9717 6.3222C40.054 7.1967 39.9306 14.9631 39.9306 14.9631Z" fill="#F7D4D5"/>
</g>
<defs>
<linearGradient id="paint0_linear_2004_1515" x1="28.5678" y1="138.448" x2="11.4311" y2="138.448" gradientUnits="userSpaceOnUse">
<stop stop-color="#ABA67C"/>
<stop offset="0.0272007" stop-color="#BEBA98"/>
<stop offset="0.0658866" stop-color="#D4D1B9"/>
<stop offset="0.1057" stop-color="#E6E4D3"/>
<stop offset="0.1466" stop-color="#F2F1E5"/>
<stop offset="0.1892" stop-color="#FAF8F0"/>
<stop offset="0.2363" stop-color="#FCFBF4"/>
<stop offset="0.522" stop-color="#EDE9BE"/>
<stop offset="0.621" stop-color="#EEEAC1"/>
<stop offset="0.7043" stop-color="#F1EECC"/>
<stop offset="0.7816" stop-color="#F6F3DD"/>
<stop offset="0.8516" stop-color="#FCFBF4"/>
<stop offset="1" stop-color="#ABA67C"/>
</linearGradient>
<linearGradient id="paint1_linear_2004_1515" x1="20.154" y1="120.14" x2="19.9106" y2="0.0306643" gradientUnits="userSpaceOnUse">
<stop stop-color="#C6C190"/>
<stop offset="0.4289" stop-color="#C4BF8F"/>
<stop offset="0.601" stop-color="#BDB88A"/>
<stop offset="0.727" stop-color="#B1AC82"/>
<stop offset="0.8307" stop-color="#A19A76"/>
<stop offset="0.9194" stop-color="#8B8467"/>
<stop offset="0.9984" stop-color="#716954"/>
<stop offset="1" stop-color="#706854"/>
</linearGradient>
<linearGradient id="paint2_linear_2004_1515" x1="26.9447" y1="145.712" x2="13.0543" y2="145.712" gradientUnits="userSpaceOnUse">
<stop offset="0.0604396"/>
<stop offset="0.0864835" stop-color="#1F190E"/>
<stop offset="0.1422" stop-color="#5C4A29"/>
<stop offset="0.1895" stop-color="#896E3C"/>
<stop offset="0.226" stop-color="#A58448"/>
<stop offset="0.2473" stop-color="#AF8C4D"/>
<stop offset="0.2964" stop-color="#A17E40"/>
<stop offset="0.3516" stop-color="#8C6A2C"/>
<stop offset="0.4286" stop-color="#755925"/>
<stop offset="0.489" stop-color="#5D471D"/>
<stop offset="0.7363" stop-color="#5D471D"/>
<stop offset="0.8736" stop-color="#A47C33"/>
<stop offset="0.9725" stop-color="#463516"/>
</linearGradient>
<linearGradient id="paint3_linear_2004_1515" x1="26.8915" y1="132.752" x2="13.1248" y2="132.752" gradientUnits="userSpaceOnUse">
<stop offset="0.0604396" stop-color="#F8B334"/>
<stop offset="0.0682008" stop-color="#F8B63C"/>
<stop offset="0.1303" stop-color="#FACD7A"/>
<stop offset="0.1829" stop-color="#FCDEA6"/>
<stop offset="0.2236" stop-color="#FDE8C2"/>
<stop offset="0.2473" stop-color="#FDECCC"/>
<stop offset="0.2619" stop-color="#FDE7BE"/>
<stop offset="0.2897" stop-color="#FBD999"/>
<stop offset="0.3274" stop-color="#F9C35E"/>
<stop offset="0.3516" stop-color="#F8B334"/>
<stop offset="0.4286" stop-color="#F9BD4D"/>
<stop offset="0.489" stop-color="#B18025"/>
<stop offset="0.7363" stop-color="#D5992D"/>
<stop offset="0.8736" stop-color="#FCE3B3"/>
<stop offset="0.9725" stop-color="#B18025"/>
</linearGradient>
<linearGradient id="paint4_linear_2004_1515" x1="26.8323" y1="134.358" x2="13.1772" y2="134.358" gradientUnits="userSpaceOnUse">
<stop offset="0.0604396" stop-color="#F8B334"/>
<stop offset="0.0682008" stop-color="#F8B63C"/>
<stop offset="0.1303" stop-color="#FACD7A"/>
<stop offset="0.1829" stop-color="#FCDEA6"/>
<stop offset="0.2236" stop-color="#FDE8C2"/>
<stop offset="0.2473" stop-color="#FDECCC"/>
<stop offset="0.2619" stop-color="#FDE7BE"/>
<stop offset="0.2897" stop-color="#FBD999"/>
<stop offset="0.3274" stop-color="#F9C35E"/>
<stop offset="0.3516" stop-color="#F8B334"/>
<stop offset="0.4286" stop-color="#F9BD4D"/>
<stop offset="0.489" stop-color="#B18025"/>
<stop offset="0.7363" stop-color="#D5992D"/>
<stop offset="0.8736" stop-color="#FCE3B3"/>
<stop offset="0.9725" stop-color="#B18025"/>
</linearGradient>
<linearGradient id="paint5_linear_2004_1515" x1="24.4349" y1="159.835" x2="15.564" y2="159.835" gradientUnits="userSpaceOnUse">
<stop stop-color="#FFAB00"/>
<stop offset="0.4945" stop-color="#F8E834"/>
<stop offset="1" stop-color="#FFAB00"/>
</linearGradient>
<linearGradient id="paint6_linear_2004_1515" x1="26.9447" y1="153.729" x2="13.0544" y2="153.729" gradientUnits="userSpaceOnUse">
<stop stop-color="#8C6A2C"/>
<stop offset="1" stop-color="#5D471D"/>
</linearGradient>
<linearGradient id="paint7_linear_2004_1515" x1="26.9445" y1="151.196" x2="13.0541" y2="151.196" gradientUnits="userSpaceOnUse">
<stop stop-color="#755925"/>
<stop offset="1" stop-color="#463516"/>
</linearGradient>
<linearGradient id="paint8_linear_2004_1515" x1="26.9446" y1="153.841" x2="13.0543" y2="153.841" gradientUnits="userSpaceOnUse">
<stop offset="0.0604396" stop-color="#463516"/>
<stop offset="0.0925596" stop-color="#5D4822"/>
<stop offset="0.1619" stop-color="#896D39"/>
<stop offset="0.2158" stop-color="#A58448"/>
<stop offset="0.2473" stop-color="#AF8C4D"/>
<stop offset="0.2964" stop-color="#A17E40"/>
<stop offset="0.3516" stop-color="#8C6A2C"/>
<stop offset="0.4286" stop-color="#755925"/>
<stop offset="0.489" stop-color="#5D471D"/>
<stop offset="0.7363" stop-color="#5D471D"/>
<stop offset="0.8736" stop-color="#A47C33"/>
<stop offset="0.9725" stop-color="#463516"/>
</linearGradient>
<linearGradient id="paint9_linear_2004_1515" x1="20.084" y1="122.307" x2="19.9623" y2="101.727" gradientUnits="userSpaceOnUse">
<stop offset="0.032967" stop-color="#99860F"/>
<stop offset="0.0513406" stop-color="#A39223"/>
<stop offset="0.0932051" stop-color="#B8AA4C"/>
<stop offset="0.1363" stop-color="#C9BE6D"/>
<stop offset="0.1802" stop-color="#D6CD87"/>
<stop offset="0.2253" stop-color="#E0D899"/>
<stop offset="0.2723" stop-color="#E5DFA4"/>
<stop offset="0.3242" stop-color="#E7E1A8"/>
<stop offset="0.522" stop-color="#CFC16B"/>
<stop offset="0.6534" stop-color="#D0C26D"/>
<stop offset="0.7007" stop-color="#D2C574"/>
<stop offset="0.7345" stop-color="#D7CC7F"/>
<stop offset="0.7616" stop-color="#DDD490"/>
<stop offset="0.7847" stop-color="#E6DFA6"/>
<stop offset="0.7857" stop-color="#E6E0A7"/>
<stop offset="0.8791" stop-color="#C6BD90"/>
</linearGradient>
<radialGradient id="paint10_radial_2004_1515" cx="0" cy="0" r="1" gradientUnits="userSpaceOnUse" gradientTransform="translate(19.8083 -3.96955) rotate(180) scale(22.8051 27.5805)">
<stop stop-color="#C6BD90"/>
<stop offset="0.1538" stop-color="#E0DAA3"/>
<stop offset="0.2527" stop-color="#E6E0A7"/>
<stop offset="0.2692" stop-color="#E2DCA4"/>
<stop offset="0.3022" stop-color="#E7E1A8"/>
<stop offset="0.3242" stop-color="#E4DDA2"/>
<stop offset="0.3462" stop-color="#E5DEA3"/>
<stop offset="0.3901" stop-color="#CFC16B"/>
<stop offset="0.4831" stop-color="#CEC069"/>
<stop offset="0.5166" stop-color="#CABB62"/>
<stop offset="0.5404" stop-color="#C3B457"/>
<stop offset="0.5598" stop-color="#B9A946"/>
<stop offset="0.5763" stop-color="#AC9B30"/>
<stop offset="0.5907" stop-color="#9D8A15"/>
<stop offset="0.5934" stop-color="#99860F"/>
<stop offset="0.8681" stop-color="#99860F"/>
</radialGradient>
<radialGradient id="paint11_radial_2004_1515" cx="0" cy="0" r="1" gradientUnits="userSpaceOnUse" gradientTransform="translate(19.8318 -3.13362) rotate(180) scale(22.7508 23.0077)">
<stop offset="0.1099" stop-color="#99860F"/>
<stop offset="0.121" stop-color="#A39223"/>
<stop offset="0.1463" stop-color="#B8AA4C"/>
<stop offset="0.1723" stop-color="#C9BE6D"/>
<stop offset="0.1988" stop-color="#D6CD87"/>
<stop offset="0.226" stop-color="#E0D899"/>
<stop offset="0.2544" stop-color="#E5DFA4"/>
<stop offset="0.2857" stop-color="#E7E1A8"/>
<stop offset="0.489" stop-color="#CFC16B"/>
<stop offset="0.6506" stop-color="#D0C26D"/>
<stop offset="0.7088" stop-color="#D2C574"/>
<stop offset="0.7503" stop-color="#D7CB7F"/>
<stop offset="0.7836" stop-color="#DDD490"/>
<stop offset="0.8077" stop-color="#E4DDA2"/>
<stop offset="0.8187" stop-color="#E6E0A7"/>
<stop offset="0.9121" stop-color="#E0DAA3"/>
<stop offset="1" stop-color="#C6BD90"/>
</radialGradient>
<radialGradient id="paint12_radial_2004_1515" cx="0" cy="0" r="1" gradientUnits="userSpaceOnUse" gradientTransform="translate(10.1493 38.5427) rotate(180) scale(94.6526 95.7214)">
<stop offset="0.1099" stop-color="#99860F"/>
<stop offset="0.121" stop-color="#A39223"/>
<stop offset="0.1463" stop-color="#B8AA4C"/>
<stop offset="0.1723" stop-color="#C9BE6D"/>
<stop offset="0.1988" stop-color="#D6CD87"/>
<stop offset="0.226" stop-color="#E0D899"/>
<stop offset="0.2544" stop-color="#E5DFA4"/>
<stop offset="0.2857" stop-color="#E7E1A8"/>
<stop offset="0.489" stop-color="#CFC16B"/>
<stop offset="0.6506" stop-color="#D0C26D"/>
<stop offset="0.7088" stop-color="#D2C574"/>
<stop offset="0.7503" stop-color="#D7CB7F"/>
<stop offset="0.7836" stop-color="#DDD490"/>
<stop offset="0.8077" stop-color="#E4DDA2"/>
<stop offset="0.8187" stop-color="#E6E0A7"/>
<stop offset="0.9121" stop-color="#E0DAA3"/>
<stop offset="1" stop-color="#C6BD90"/>
</radialGradient>
<linearGradient id="paint13_linear_2004_1515" x1="35.3009" y1="59.8691" x2="21.9721" y2="59.8691" gradientUnits="userSpaceOnUse">
<stop stop-color="#FDFCF5"/>
<stop offset="1" stop-color="#F2ECB8"/>
</linearGradient>
<linearGradient id="paint14_linear_2004_1515" x1="11.101" y1="59.381" x2="2.1762" y2="59.381" gradientUnits="userSpaceOnUse">
<stop stop-color="#F6F1CC"/>
<stop offset="0.9066" stop-color="#F0E9AE"/>
</linearGradient>
</defs>
</svg>
